<?xml version="1.0" standalone="no"?>
<!DOCTYPE svg PUBLIC "-//W3C//DTD SVG 20010904//EN"
 "http://www.w3.org/TR/2001/REC-SVG-20010904/DTD/svg10.dtd">
<svg version="1.0" xmlns="http://www.w3.org/2000/svg"
 width="363.000000pt" height="208.000000pt" viewBox="0 0 363.000000 208.000000"
 preserveAspectRatio="xMidYMid meet">

<g transform="translate(0.000000,208.000000) scale(0.100000,-0.100000)"
fill="#000000" stroke="none">
<path d="M1466 1439 c-21 -25 -26 -41 -26 -89 0 -42 -5 -64 -19 -81 -19 -24
-19 -24 2 -47 17 -18 21 -35 21 -94 1 -82 -13 -97 -44 -46 -15 23 -19 43 -16
68 l5 35 -15 -33 c-20 -46 -10 -87 37 -157 34 -51 39 -65 39 -117 0 -66 -17
-107 -54 -132 -14 -9 -37 -39 -51 -67 -17 -32 -39 -58 -62 -72 -20 -11 -31
-23 -25 -25 20 -6 77 30 122 79 37 41 55 51 105 64 32 8 67 15 76 15 10 0 27
15 39 34 13 21 56 58 111 93 l91 58 -7 55 c-12 97 -34 134 -204 342 -16 19
-25 43 -25 64 0 54 -20 22 -21 -34 -1 -48 -35 -122 -56 -122 -5 0 -9 21 -8 48
1 26 -2 65 -6 88 -5 30 -3 49 9 72 21 40 15 41 -18 1z m154 -256 c38 -46 75
-122 92 -186 12 -45 11 -50 -7 -63 -35 -26 -57 -14 -72 39 -10 35 -11 52 -3
68 7 11 9 23 7 26 -13 12 -37 -61 -37 -113 0 -87 -55 -161 -87 -118 -19 25
-16 64 7 109 l20 40 -21 29 c-12 16 -24 48 -26 71 -5 36 -1 46 33 87 22 26 44
47 51 47 6 1 26 -16 43 -36z"/>
<path d="M2309 1428 c-15 -25 -19 -43 -14 -73 21 -156 21 -162 -25 -220 -31
-39 -41 -103 -20 -135 7 -11 10 -7 10 17 0 39 18 53 37 27 10 -14 12 -40 8
-104 -4 -47 -2 -98 3 -115 4 -16 4 -54 0 -86 -8 -49 -6 -63 11 -98 29 -55 44
-61 25 -9 -14 39 -13 47 6 111 12 37 28 71 36 74 9 3 27 -5 43 -21 29 -28 65
-38 37 -10 -9 8 -16 20 -16 25 0 6 -19 29 -41 51 -41 41 -41 42 -35 96 4 30 9
59 12 64 4 5 20 -6 36 -26 39 -47 50 -46 33 4 -13 36 -12 70 2 70 3 0 14 -11
24 -24 11 -14 35 -30 54 -37 35 -13 45 -31 45 -87 0 -26 -8 -41 -40 -69 -49
-44 -54 -86 -15 -130 l24 -28 -11 31 c-17 48 -4 81 45 105 48 25 53 31 67 80
7 25 6 48 -3 79 -10 36 -18 45 -43 52 -16 4 -41 19 -54 33 l-23 25 26 24 c14
13 29 37 32 53 4 15 8 33 10 40 2 7 -9 22 -25 33 -19 13 -30 30 -30 45 0 16
-7 26 -22 30 -13 4 -35 18 -50 32 l-26 25 -7 -31 c-6 -28 -46 -71 -66 -71 -5
0 -9 8 -9 18 0 9 -9 28 -20 42 -22 28 -25 56 -10 94 13 36 4 32 -21 -6z m205
-249 c-7 -14 -26 -34 -41 -44 -15 -10 -40 -29 -54 -42 l-26 -24 -21 39 c-26
50 -16 72 53 124 l49 37 27 -32 c24 -29 26 -34 13 -58z"/>
<path d="M1326 1381 c-9 -16 -16 -37 -16 -45 0 -38 -48 -133 -85 -169 l-40
-39 -5 -97 c-4 -77 -10 -103 -28 -133 -13 -21 -27 -38 -32 -38 -15 0 -89 89
-96 116 -4 15 -1 49 6 76 11 46 11 51 -13 87 -22 33 -26 51 -29 139 -2 79 -6
98 -15 89 -7 -7 -14 -38 -17 -70 -3 -33 -13 -71 -25 -91 -26 -41 -26 -45 -2
-39 34 9 81 -123 50 -143 -16 -10 -30 10 -45 63 l-13 48 0 -50 c-1 -66 22
-112 108 -219 39 -49 71 -94 72 -100 1 -6 0 -27 -1 -48 -1 -34 20 -90 38 -102
5 -3 5 11 -1 32 -15 57 32 205 80 249 32 31 34 36 24 65 -23 66 -8 136 45 205
28 37 49 34 41 -5 -5 -25 -4 -25 9 -7 17 23 18 57 3 124 -7 34 -7 61 0 87 13
48 7 55 -13 15z"/>
<path d="M2085 1395 c21 -58 23 -77 10 -126 -19 -69 -21 -186 -6 -232 18 -53
1 -92 -45 -107 -21 -7 -34 -18 -34 -28 -1 -41 -16 -44 -63 -12 -57 38 -78 91
-58 145 6 18 14 56 18 84 7 61 19 64 62 16 39 -45 40 -33 1 28 -25 39 -37 49
-77 59 -35 10 -51 21 -66 46 -10 17 -21 32 -23 32 -8 0 10 -56 28 -85 23 -38
24 -125 2 -167 -30 -58 -4 -158 48 -186 62 -33 88 -69 88 -122 0 -27 4 -51 9
-54 10 -6 22 44 21 87 0 29 55 97 79 97 18 0 24 -26 12 -49 -7 -13 -8 -22 -1
-26 5 -3 10 -32 10 -64 0 -35 6 -65 15 -77 14 -18 14 -17 9 11 -3 17 2 50 10
74 11 28 16 78 16 145 0 92 2 105 26 139 29 44 40 94 28 134 -7 27 -8 26 -13
-16 -6 -42 -31 -74 -47 -59 -16 17 -16 98 0 123 15 23 15 29 1 71 -8 24 -15
50 -15 57 0 7 -12 29 -26 48 -15 19 -23 25 -19 14z"/>
</g>
</svg>
