<svg width="273" height="141" viewBox="0 0 273 141" fill="none" xmlns="http://www.w3.org/2000/svg">
<path d="M69.875 8.6875V9.1875C67.4167 13.6875 66.1875 18.6875 66.1875 24.1875C66.1875 25.6458 67.25 31.1667 69.375 40.75V41.5625C69.375 46.1458 67.4375 50.5208 63.5625 54.6875V54.4375C64.8125 50.8542 65.4375 48.3958 65.4375 47.0625V45.5C65.4375 43.75 64.8125 42.875 63.5625 42.875H63.3125C59.8958 45.75 56.3125 50.8333 52.5625 58.125C51.6875 59.625 50.8958 62.7708 50.1875 67.5625L50.4375 76C51.4375 80.25 52.5833 83.3958 53.875 85.4375V85.6875C47.3333 90.4792 43.6458 94.1667 42.8125 96.75C41.6042 99.0417 40.375 102.188 39.125 106.188C38.4583 108.062 37.5 112.271 36.25 118.812C34.8333 120.938 34.125 122.792 34.125 124.375C34.125 126.167 35.5208 130.542 38.3125 137.5H37.8125C32.0208 129.417 29.125 123.542 29.125 119.875L31 112.812C31 110.562 27.5833 105.479 20.75 97.5625C9.70833 84.1042 4.1875 76.2083 4.1875 73.875C2.22917 69 1.25 64.2708 1.25 59.6875C1.625 57.6875 2.5 55.2292 3.875 52.3125H4.4375L3.625 56.25L3.875 57.5625V59.6875C4.125 63.2708 5.54167 66.9583 8.125 70.75L9.1875 71.25H11C12.0417 70.7083 12.5625 69.2292 12.5625 66.8125V65.5C12.5625 58.4583 10.2083 52.6667 5.5 48.125L3.875 47.875C2.70833 47.875 1.9375 48.9167 1.5625 51H1.25L0.75 50.5V49.1875C0.75 46.6458 2.25 43.6667 5.25 40.25C6.79167 36.5 7.5625 32.9792 7.5625 29.6875L7.3125 24.4375C7.3125 20.1875 9.6875 16.0833 14.4375 12.125V12.625C12.3125 15.7083 11.25 18.25 11.25 20.25V21.5625C11.25 24.2708 11.875 26.9792 13.125 29.6875L13.625 32.875L12.3125 41.5625C12.3125 45.3542 14.1458 49.2083 17.8125 53.125L21.5 59.6875C19.0417 64.9375 17.7292 69.2292 17.5625 72.5625V76C17.5625 81.125 22.6458 88.125 32.8125 97H33.0625C38.7292 89.9583 41.8958 84.875 42.5625 81.75V69.125C42.5625 57.2083 43.875 51.25 46.5 51.25C51.9167 47.4583 55.9375 41.8542 58.5625 34.4375C60.4375 31.3542 62.1042 25.6667 63.5625 17.375C64.3125 15.0833 66.3333 12.1875 69.625 8.6875H69.875ZM92.6875 0.375V0.9375C88.7292 6.64583 86.75 11.1875 86.75 14.5625C86.75 16.5625 87.7708 19.875 89.8125 24.5L90.125 27V27.3125L88.6875 36.9375V37.25C88.6875 38.25 89.0625 38.8958 89.8125 39.1875H91C96.125 33.0208 99.0417 27.1667 99.75 21.625L98.625 15.125C98.625 14.3333 99.8542 12.1667 102.312 8.625H102.875L101.75 14.5625C102.292 19.3542 105.792 25.0208 112.25 31.5625C129.458 50.3125 138.062 65.625 138.062 77.5L138.625 86.875C137.208 86.875 128.979 92.0625 113.938 102.438C108.479 107.354 105.75 111.042 105.75 113.5C105.75 114.083 101.771 115.021 93.8125 116.312C83.6042 118.521 78.5 120.333 78.5 121.75C76.0417 122.917 73.1042 126.396 69.6875 132.188C66.3542 135.604 61.0625 138.25 53.8125 140.125L51 140.438L61.75 133.625C64.3333 131.875 66.6042 128.375 68.5625 123.125C68.7292 120.458 72.7083 116.208 80.5 110.375C83.5 105.958 85 101.604 85 97.3125V96.1875C85 86.5208 83.0208 80 79.0625 76.625C73.6042 69.9167 70.875 63.5 70.875 57.375C70.875 52.4167 72.8542 47.3125 76.8125 42.0625V42.3125C75.1042 47.3125 74.25 51.375 74.25 54.5C74.25 59.4167 76.5208 63.5 81.0625 66.75H82.5C82.5 66.2917 83.1458 65.25 84.4375 63.625L84.1875 63.3125V57.0625C84.1875 47.0625 82.5833 41.1042 79.375 39.1875L76.25 36.125C80.9583 32.5 83.3125 29.0833 83.3125 25.875L83.0625 14.5625C83.0625 10.1875 85.6042 6.02083 90.6875 2.0625L92.6875 0.375ZM103.438 38.9375C100.771 43.7708 97.8542 46.9792 94.6875 48.5625C92.3125 51.5208 90.8958 55.3125 90.4375 59.9375V60.1875C90.4375 65.9375 93.2708 71.4167 98.9375 76.625V76.9375C95.6042 80.2292 93.4167 85.2292 92.375 91.9375L92.125 92.25L92.375 92.5V93.375C92.375 99.4167 93.8958 102.438 96.9375 102.438C99.6458 102.438 102.958 98.8542 106.875 91.6875C107.625 88.8125 108 86.7292 108 85.4375L106.875 76.625C107.542 71.2917 110.375 66.1042 115.375 61.0625V61.625C112.833 66.375 111.417 70.1458 111.125 72.9375C111.417 74.6042 112.354 77.3542 113.938 81.1875C113.938 85.1458 114.875 87.125 116.75 87.125C116.75 87.5 117.417 87.6875 118.75 87.6875L127 84C127 80.625 125.208 73.8333 121.625 63.625C117.292 54.375 112.75 47.4583 108 42.875L103.438 38.9375ZM180.375 8.75H180.625C185.25 12.875 188.25 16.625 189.625 20C190.667 22.4583 191.417 26.2083 191.875 31.25L195.625 38V38.25C192.125 42.6667 190.375 46.5 190.375 49.75V50.5C190.875 57.6667 192.125 61.5 194.125 62L195.625 62.25C198.625 60.7917 200.125 57.625 200.125 52.75V50.5L200.375 49.25L200.125 47.75V45.25L199.875 44H200.125C200.583 44 201.583 47 203.125 53L203.625 56.75C202.958 60.875 201.625 64.4583 199.625 67.5C195.458 73.0417 193.375 77.2083 193.375 80L193.125 84V92.5L194.125 101.5V104.25C194.125 106.917 192.625 111.917 189.625 119.25L188.875 122.75V124.25C188.875 125.083 189.625 127.5 191.125 131.5C187.625 128.25 185.875 124.833 185.875 121.25L186.375 111.5C186.375 109.333 185.208 107.333 182.875 105.5L185.875 100V97.75C185.875 95.5833 184.958 94.5 183.125 94.5H182.875C180.667 94.5 177.417 97.0833 173.125 102.25C172.75 102.333 171.917 103.583 170.625 106V108.5L171.125 112.5L168.375 118.5V120.25L169.875 127.25V127.5C166.708 123.417 165.125 120.083 165.125 117.5L166.125 111.25C166.125 108.208 163.542 104.292 158.375 99.5C154.708 97.1667 151.375 95.5833 148.375 94.75C144.042 87.9167 141.875 79.8333 141.875 70.5C145.542 66.9167 147.375 62.1667 147.375 56.25V54.25L147.625 53.25L147.375 52.25V48.75C146.958 45.5833 144.792 41.0833 140.875 35.25C140.208 33.4167 139.875 31.3333 139.875 29V24.75H140.375C142.208 34.0833 145.542 38.75 150.375 38.75C155.458 39.7083 159.042 41.2083 161.125 43.25C164.75 46.6667 167.5 50.5833 169.375 55L171.125 60.75C170.75 60.5833 169.333 58.4167 166.875 54.25C163.167 49.25 159.417 46.75 155.625 46.75L155.875 53.25C155.875 60.625 154.375 66.375 151.375 70.5C151.375 77.1667 152.958 83.1667 156.125 88.5C159.25 88.875 163.333 91.5417 168.375 96.5L168.625 96.75H168.875C171.208 93.625 172.375 90.875 172.375 88.5C172.375 86.8333 172.708 86 173.375 86C176.875 86 179.292 85.3333 180.625 84C182.333 82.9583 183.583 81.5417 184.375 79.75L185.375 75C185.375 71.375 183.958 66.375 181.125 60C182.625 57.125 183.375 54.5417 183.375 52.25V48.75L183.125 40.5C183.125 39.0417 184.208 34.875 186.375 28C186.458 26.3333 186.625 25.5 186.875 25.5C186.875 21.1667 184.708 15.6667 180.375 9V8.75ZM222.812 0.375H223.125C220.875 6.5 219.75 10.5417 219.75 12.5C219.75 16.0417 221.521 19.5208 225.062 22.9375C226.062 22.9375 226.625 25.5625 226.75 30.8125C234.667 27.6458 238.625 21.7292 238.625 13.0625H238.875C242.917 17.9792 245.833 20.8958 247.625 21.8125C249.375 22.5625 251.542 23.125 254.125 23.5L253.812 26.875V28.5625C253.812 31.2292 256.833 34.0625 262.875 37.0625C261.958 45.6875 261.021 50 260.062 50C259.271 52.5833 256.625 55.125 252.125 57.625C253.833 61.1667 256.292 64.0833 259.5 66.375C261.5 67.2917 264.417 68.0417 268.25 68.625C270.875 74.75 272.188 79.4375 272.188 82.6875V84.6875C271.146 90.3958 269.646 94.4375 267.688 96.8125C260.354 100.146 256.312 102.312 255.562 103.312C253.396 105.396 252.167 107.646 251.875 110.062V111.188C251.875 112.438 253.188 115.833 255.812 121.375H255.562C250.104 117.458 247.375 112.458 247.375 106.375C248.375 102.583 250.062 100.062 252.438 98.8125C254.188 96.9792 256.438 95.0833 259.188 93.125C260.312 90.125 260.875 86.9375 260.875 83.5625C259.625 78.0625 258.792 75.1458 258.375 74.8125C250.667 72.3958 245.688 69.2083 243.438 65.25L243.125 62.125C240.5 63.5833 239.188 65.0833 239.188 66.625V68.875C239.188 71.0833 240.979 75.5 244.562 82.125V82.4375C237.854 78.1458 233.333 73.1667 231 67.5V66.9375C231 64.7708 232.417 62.0417 235.25 58.75C245 52.8333 249.875 49.0833 249.875 47.5L252.125 41.25C249.25 39.6667 247.292 37.4167 246.25 34.5C245.375 32.625 244.812 31.6875 244.562 31.6875C235.562 38.0625 229.917 42.5625 227.625 45.1875C226.75 46.4792 225.896 48.9375 225.062 52.5625C227.812 55.1458 229.708 59.0833 230.75 64.375V66.375L227.625 83.875V84.125C227.625 86.7083 228.271 89.8958 229.562 93.6875H231C233.125 93.6875 235.667 95.7708 238.625 99.9375C240.25 105.021 242.042 107.938 244 108.688L244.812 109.5L244.562 109.812H242.562C240.438 109.812 237.625 107.271 234.125 102.188L232.438 101.625C228.854 101.917 227.062 103.312 227.062 105.812C223.688 115.896 222 121.729 222 123.312V125C222 127.583 223.688 132.375 227.062 139.375H226.75C220.458 132.458 217.167 126.833 216.875 122.5L219.188 106.688V105.25C219.188 104.292 218.146 100.062 216.062 92.5625V90.3125C217.354 81.9792 218 76.8125 218 74.8125V73.4375L218.312 73.125C217.729 69.2917 216.979 66.75 216.062 65.5L214.062 63.8125H213.25C211.375 65.4375 210.438 67.7917 210.438 70.875L211.25 77.9375H210.688C208.062 73.4792 206.75 69.5208 206.75 66.0625C206.75 60.6458 208.812 56.1458 212.938 52.5625C216.896 47.1875 218.875 42.0208 218.875 37.0625L215.75 19L215.5 15.625C215.5 10.75 217.938 5.66667 222.812 0.375Z" fill="white"/>
</svg>
