<svg width="137" height="71" viewBox="0 0 137 71" fill="none" xmlns="http://www.w3.org/2000/svg">
<path d="M34.9375 4.84375V5.09375C33.7083 7.34375 33.0938 9.84375 33.0938 12.5938C33.0938 13.3229 33.625 16.0833 34.6875 20.875V21.2812C34.6875 23.5729 33.7188 25.7604 31.7812 27.8438V27.7188C32.4062 25.9271 32.7188 24.6979 32.7188 24.0312V23.25C32.7188 22.375 32.4062 21.9375 31.7812 21.9375H31.6562C29.9479 23.375 28.1562 25.9167 26.2812 29.5625C25.8438 30.3125 25.4479 31.8854 25.0938 34.2812L25.2188 38.5C25.7188 40.625 26.2917 42.1979 26.9375 43.2188V43.3438C23.6667 45.7396 21.8229 47.5833 21.4062 48.875C20.8021 50.0208 20.1875 51.5938 19.5625 53.5938C19.2292 54.5312 18.75 56.6354 18.125 59.9062C17.4167 60.9688 17.0625 61.8958 17.0625 62.6875C17.0625 63.5833 17.7604 65.7708 19.1562 69.25H18.9062C16.0104 65.2083 14.5625 62.2708 14.5625 60.4375L15.5 56.9062C15.5 55.7812 13.7917 53.2396 10.375 49.2812C4.85417 42.5521 2.09375 38.6042 2.09375 37.4375C1.11458 35 0.625 32.6354 0.625 30.3438C0.8125 29.3438 1.25 28.1146 1.9375 26.6562H2.21875L1.8125 28.625L1.9375 29.2812V30.3438C2.0625 32.1354 2.77083 33.9792 4.0625 35.875L4.59375 36.125H5.5C6.02083 35.8542 6.28125 35.1146 6.28125 33.9062V33.25C6.28125 29.7292 5.10417 26.8333 2.75 24.5625L1.9375 24.4375C1.35417 24.4375 0.96875 24.9583 0.78125 26H0.625L0.375 25.75V25.0938C0.375 23.8229 1.125 22.3333 2.625 20.625C3.39583 18.75 3.78125 16.9896 3.78125 15.3438L3.65625 12.7188C3.65625 10.5938 4.84375 8.54167 7.21875 6.5625V6.8125C6.15625 8.35417 5.625 9.625 5.625 10.625V11.2812C5.625 12.6354 5.9375 13.9896 6.5625 15.3438L6.8125 16.9375L6.15625 21.2812C6.15625 23.1771 7.07292 25.1042 8.90625 27.0625L10.75 30.3438C9.52083 32.9688 8.86458 35.1146 8.78125 36.7812V38.5C8.78125 41.0625 11.3229 44.5625 16.4062 49H16.5312C19.3646 45.4792 20.9479 42.9375 21.2812 41.375V35.0625C21.2812 29.1042 21.9375 26.125 23.25 26.125C25.9583 24.2292 27.9688 21.4271 29.2812 17.7188C30.2188 16.1771 31.0521 13.3333 31.7812 9.1875C32.1562 8.04167 33.1667 6.59375 34.8125 4.84375H34.9375ZM46.3438 0.6875V0.96875C44.3646 3.82292 43.375 6.09375 43.375 7.78125C43.375 8.78125 43.8854 10.4375 44.9062 12.75L45.0625 14V14.1562L44.3438 18.9688V19.125C44.3438 19.625 44.5312 19.9479 44.9062 20.0938H45.5C48.0625 17.0104 49.5208 14.0833 49.875 11.3125L49.3125 8.0625C49.3125 7.66667 49.9271 6.58333 51.1562 4.8125H51.4375L50.875 7.78125C51.1458 10.1771 52.8958 13.0104 56.125 16.2812C64.7292 25.6562 69.0312 33.3125 69.0312 39.25L69.3125 43.9375C68.6042 43.9375 64.4896 46.5312 56.9688 51.7188C54.2396 54.1771 52.875 56.0208 52.875 57.25C52.875 57.5417 50.8854 58.0104 46.9062 58.6562C41.8021 59.7604 39.25 60.6667 39.25 61.375C38.0208 61.9583 36.5521 63.6979 34.8438 66.5938C33.1771 68.3021 30.5312 69.625 26.9062 70.5625L25.5 70.7188L30.875 67.3125C32.1667 66.4375 33.3021 64.6875 34.2812 62.0625C34.3646 60.7292 36.3542 58.6042 40.25 55.6875C41.75 53.4792 42.5 51.3021 42.5 49.1562V48.5938C42.5 43.7604 41.5104 40.5 39.5312 38.8125C36.8021 35.4583 35.4375 32.25 35.4375 29.1875C35.4375 26.7083 36.4271 24.1562 38.4062 21.5312V21.6562C37.5521 24.1562 37.125 26.1875 37.125 27.75C37.125 30.2083 38.2604 32.25 40.5312 33.875H41.25C41.25 33.6458 41.5729 33.125 42.2188 32.3125L42.0938 32.1562V29.0312C42.0938 24.0312 41.2917 21.0521 39.6875 20.0938L38.125 18.5625C40.4792 16.75 41.6562 15.0417 41.6562 13.4375L41.5312 7.78125C41.5312 5.59375 42.8021 3.51042 45.3438 1.53125L46.3438 0.6875ZM51.7188 19.9688C50.3854 22.3854 48.9271 23.9896 47.3438 24.7812C46.1562 26.2604 45.4479 28.1562 45.2188 30.4688V30.5938C45.2188 33.4688 46.6354 36.2083 49.4688 38.8125V38.9688C47.8021 40.6146 46.7083 43.1146 46.1875 46.4688L46.0625 46.625L46.1875 46.75V47.1875C46.1875 50.2083 46.9479 51.7188 48.4688 51.7188C49.8229 51.7188 51.4792 49.9271 53.4375 46.3438C53.8125 44.9062 54 43.8646 54 43.2188L53.4375 38.8125C53.7708 36.1458 55.1875 33.5521 57.6875 31.0312V31.3125C56.4167 33.6875 55.7083 35.5729 55.5625 36.9688C55.7083 37.8021 56.1771 39.1771 56.9688 41.0938C56.9688 43.0729 57.4375 44.0625 58.375 44.0625C58.375 44.25 58.7083 44.3438 59.375 44.3438L63.5 42.5C63.5 40.8125 62.6042 37.4167 60.8125 32.3125C58.6458 27.6875 56.375 24.2292 54 21.9375L51.7188 19.9688ZM90.1875 4.875H90.3125C92.625 6.9375 94.125 8.8125 94.8125 10.5C95.3333 11.7292 95.7083 13.6042 95.9375 16.125L97.8125 19.5V19.625C96.0625 21.8333 95.1875 23.75 95.1875 25.375V25.75C95.4375 29.3333 96.0625 31.25 97.0625 31.5L97.8125 31.625C99.3125 30.8958 100.062 29.3125 100.062 26.875V25.75L100.188 25.125L100.062 24.375V23.125L99.9375 22.5H100.062C100.292 22.5 100.792 24 101.562 27L101.812 28.875C101.479 30.9375 100.812 32.7292 99.8125 34.25C97.7292 37.0208 96.6875 39.1042 96.6875 40.5L96.5625 42.5V46.75L97.0625 51.25V52.625C97.0625 53.9583 96.3125 56.4583 94.8125 60.125L94.4375 61.875V62.625C94.4375 63.0417 94.8125 64.25 95.5625 66.25C93.8125 64.625 92.9375 62.9167 92.9375 61.125L93.1875 56.25C93.1875 55.1667 92.6042 54.1667 91.4375 53.25L92.9375 50.5V49.375C92.9375 48.2917 92.4792 47.75 91.5625 47.75H91.4375C90.3333 47.75 88.7083 49.0417 86.5625 51.625C86.375 51.6667 85.9583 52.2917 85.3125 53.5V54.75L85.5625 56.75L84.1875 59.75V60.625L84.9375 64.125V64.25C83.3542 62.2083 82.5625 60.5417 82.5625 59.25L83.0625 56.125C83.0625 54.6042 81.7708 52.6458 79.1875 50.25C77.3542 49.0833 75.6875 48.2917 74.1875 47.875C72.0208 44.4583 70.9375 40.4167 70.9375 35.75C72.7708 33.9583 73.6875 31.5833 73.6875 28.625V27.625L73.8125 27.125L73.6875 26.625V24.875C73.4792 23.2917 72.3958 21.0417 70.4375 18.125C70.1042 17.2083 69.9375 16.1667 69.9375 15V12.875H70.1875C71.1042 17.5417 72.7708 19.875 75.1875 19.875C77.7292 20.3542 79.5208 21.1042 80.5625 22.125C82.375 23.8333 83.75 25.7917 84.6875 28L85.5625 30.875C85.375 30.7917 84.6667 29.7083 83.4375 27.625C81.5833 25.125 79.7083 23.875 77.8125 23.875L77.9375 27.125C77.9375 30.8125 77.1875 33.6875 75.6875 35.75C75.6875 39.0833 76.4792 42.0833 78.0625 44.75C79.625 44.9375 81.6667 46.2708 84.1875 48.75L84.3125 48.875H84.4375C85.6042 47.3125 86.1875 45.9375 86.1875 44.75C86.1875 43.9167 86.3542 43.5 86.6875 43.5C88.4375 43.5 89.6458 43.1667 90.3125 42.5C91.1667 41.9792 91.7917 41.2708 92.1875 40.375L92.6875 38C92.6875 36.1875 91.9792 33.6875 90.5625 30.5C91.3125 29.0625 91.6875 27.7708 91.6875 26.625V24.875L91.5625 20.75C91.5625 20.0208 92.1042 17.9375 93.1875 14.5C93.2292 13.6667 93.3125 13.25 93.4375 13.25C93.4375 11.0833 92.3542 8.33333 90.1875 5V4.875ZM111.406 0.6875H111.562C110.438 3.75 109.875 5.77083 109.875 6.75C109.875 8.52083 110.76 10.2604 112.531 11.9688C113.031 11.9688 113.312 13.2812 113.375 15.9062C117.333 14.3229 119.312 11.3646 119.312 7.03125H119.438C121.458 9.48958 122.917 10.9479 123.812 11.4062C124.688 11.7812 125.771 12.0625 127.062 12.25L126.906 13.9375V14.7812C126.906 16.1146 128.417 17.5312 131.438 19.0312C130.979 23.3438 130.51 25.5 130.031 25.5C129.635 26.7917 128.312 28.0625 126.062 29.3125C126.917 31.0833 128.146 32.5417 129.75 33.6875C130.75 34.1458 132.208 34.5208 134.125 34.8125C135.438 37.875 136.094 40.2188 136.094 41.8438V42.8438C135.573 45.6979 134.823 47.7188 133.844 48.9062C130.177 50.5729 128.156 51.6562 127.781 52.1562C126.698 53.1979 126.083 54.3229 125.938 55.5312V56.0938C125.938 56.7188 126.594 58.4167 127.906 61.1875H127.781C125.052 59.2292 123.688 56.7292 123.688 53.6875C124.188 51.7917 125.031 50.5312 126.219 49.9062C127.094 48.9896 128.219 48.0417 129.594 47.0625C130.156 45.5625 130.438 43.9688 130.438 42.2812C129.812 39.5312 129.396 38.0729 129.188 37.9062C125.333 36.6979 122.844 35.1042 121.719 33.125L121.562 31.5625C120.25 32.2917 119.594 33.0417 119.594 33.8125V34.9375C119.594 36.0417 120.49 38.25 122.281 41.5625V41.7188C118.927 39.5729 116.667 37.0833 115.5 34.25V33.9688C115.5 32.8854 116.208 31.5208 117.625 29.875C122.5 26.9167 124.938 25.0417 124.938 24.25L126.062 21.125C124.625 20.3333 123.646 19.2083 123.125 17.75C122.688 16.8125 122.406 16.3438 122.281 16.3438C117.781 19.5312 114.958 21.7812 113.812 23.0938C113.375 23.7396 112.948 24.9688 112.531 26.7812C113.906 28.0729 114.854 30.0417 115.375 32.6875V33.6875L113.812 42.4375V42.5625C113.812 43.8542 114.135 45.4479 114.781 47.3438H115.5C116.562 47.3438 117.833 48.3854 119.312 50.4688C120.125 53.0104 121.021 54.4688 122 54.8438L122.406 55.25L122.281 55.4062H121.281C120.219 55.4062 118.812 54.1354 117.062 51.5938L116.219 51.3125C114.427 51.4583 113.531 52.1562 113.531 53.4062C111.844 58.4479 111 61.3646 111 62.1562V63C111 64.2917 111.844 66.6875 113.531 70.1875H113.375C110.229 66.7292 108.583 63.9167 108.438 61.75L109.594 53.8438V53.125C109.594 52.6458 109.073 50.5312 108.031 46.7812V45.6562C108.677 41.4896 109 38.9062 109 37.9062V37.2188L109.156 37.0625C108.865 35.1458 108.49 33.875 108.031 33.25L107.031 32.4062H106.625C105.688 33.2188 105.219 34.3958 105.219 35.9375L105.625 39.4688H105.344C104.031 37.2396 103.375 35.2604 103.375 33.5312C103.375 30.8229 104.406 28.5729 106.469 26.7812C108.448 24.0938 109.438 21.5104 109.438 19.0312L107.875 10L107.75 8.3125C107.75 5.875 108.969 3.33333 111.406 0.6875Z" fill="#740096"/>
</svg>
